<?xml version="1.0" encoding="UTF-8" standalone="no"?>
<!DOCTYPE svg PUBLIC "-//W3C//DTD SVG 20010904//EN"
"http://www.w3.org/TR/2001/REC-SVG-20010904/DTD/svg10.dtd">
<!-- Created with Sodipodi ("http://www.sodipodi.com/") -->
<svg
   xmlns="http://www.w3.org/2000/svg"
   xmlns:sodipodi="http://sodipodi.sourceforge.net/DTD/sodipodi-0.dtd"
   xmlns:xlink="http://www.w3.org/1999/xlink"
   id="svg637"
   sodipodi:version="0.34"
   width="253.28pt"
   height="462.89pt"
   xml:space="preserve"
   sodipodi:docbase="/mnt/sda3/"
   sodipodi:docname="/mnt/sda3/fork.svg"><defs
   id="defs639" /><sodipodi:namedview
   id="base" /><g
   transform="matrix(7.4057e-2,9.069067e-18,-9.069067e-18,7.4057e-2,-21.31516,-24.87275)"
   fill="#000000"
   stroke="none"
   id="g604"><path
   d="M3043 8123 c-7 -2 -13 -19 -13 -37 0 -40 -37 -151 -55 -166 -13 -11 -34 -17 -62 -19 -6 -1 -15 -10 -18 -21 -3 -11 -13 -20 -22 -20 -10 0 -14 -6 -10 -20 3 -10 2 -20 -2 -22 -3 -2 -16 -16 -28 -31 -19 -24 -20 -32 -11 -60 6 -18 17 -41 24 -52 6 -11 15 -51 19 -90 4 -38 9 -79 11 -90 2 -11 7 -40 10 -65 10 -76 11 -85 13 -85 9 0 -4 -311 -14 -346 -3 -8 -7 -42 -9 -75 -2 -32 -6 -66 -9 -74 -11 -33 -19 -68 -27 -125 -15 -110 -41 -238 -56 -274 -12 -28 -17 -33 -24 -21 -7 11 -10 8 -11 -15 -5 -96 -35 -227 -57 -245 -10 -9 -21 -31 -24 -50 -3 -19 -29 -87 -56 -152 -28 -64 -52 -138 -55 -165 -3 -26 -10 -70 -17 -98 -15 -67 -4 -230 22 -320 11 -38 21 -74 22 -80 1 -5 19 -46 40 -90 56 -116 106 -237 106 -255 0 -9 5 -21 11 -27 7 -7 12 -49 12 -105 -1 -164 -19 -285 -49 -319 -7 -8 -17 -31 -20 -50 -4 -19 -22 -60 -41 -93 -19 -32 -35 -64 -36 -70 -1 -6 -5 -13 -8 -16 -9 -7 -69 -124 -69 -133 0 -5 -9 -21 -19 -36 -11 -15 -23 -40 -27 -57 -4 -16 -16 -44 -26 -63 -19 -34 -41 -89 -60 -150 -5 -19 -31 -68 -57 -110 -27 -42 -51 -86 -55 -98 -8 -24 -68 -129 -86 -150 -6 -7 -29 -50 -52 -95 -39 -79 -50 -97 -98 -168 -11 -16 -20 -34 -20 -40 0 -7 -14 -42 -31 -78 -17 -37 -30 -68 -29 -70 0 -1 -6 -9 -14 -17 -7 -8 -30 -43 -49 -77 -20 -35 -51 -81 -70 -102 -33 -38 -35 -39 -58 -23 -36 26 -41 20 -18 -23 27 -52 29 -69 12 -102 -7 -16 -10 -28 -6 -28 5 -1 -1 -8 -12 -18 -11 -9 -26 -35 -34 -57 -8 -22 -20 -44 -28 -50 -7 -5 -15 -21 -18 -34 -2 -13 -14 -35 -26 -48 -13 -12 -18 -23 -13 -23 5 0 4 -4 -2 -8 -6 -4 -20 -27 -31 -52 -19 -42 -36 -66 -90 -126 -32 -35 -45 -62 -37 -77 4 -6 3 -9 -1 -4 -5 4 -26 -26 -48 -65 -22 -40 -55 -88 -73 -107 -19 -19 -36 -42 -39 -52 -3 -9 -19 -22 -35 -28 -19 -6 -36 -23 -47 -45 -9 -20 -21 -36 -25 -36 -5 0 -7 -4 -3 -9 3 -5 -2 -17 -11 -25 -8 -9 -12 -16 -8 -16 3 0 1 -7 -6 -15 -6 -8 -9 -18 -6 -24 3 -5 0 -11 -8 -14 -7 -3 -16 -18 -19 -34 -4 -15 -23 -46 -43 -68 -20 -22 -46 -63 -59 -91 -13 -28 -31 -59 -40 -68 -9 -9 -33 -47 -53 -85 -21 -38 -71 -106 -112 -151 -94 -104 -100 -110 -109 -110 -4 0 -21 -12 -37 -26 -16 -14 -48 -39 -72 -55 -26 -19 -42 -37 -40 -47 2 -15 -16 -36 -103 -114 -14 -13 -37 -44 -52 -70 -16 -27 -32 -48 -36 -48 -5 0 -19 -21 -30 -46 -22 -45 -22 -56 -6 -162 6 -35 52 -91 88 -106 42 -18 162 -12 196 11 14 8 57 50 96 92 38 42 120 127 182 189 149 150 195 206 222 272 13 30 38 71 57 90 19 20 34 39 34 43 0 3 24 28 52 54 99 90 198 198 198 215 0 3 11 18 25 34 14 16 53 63 86 104 34 41 75 80 90 87 16 7 33 22 38 35 8 20 144 215 160 228 8 6 29 41 38 60 4 8 9 17 12 20 4 3 24 32 45 65 22 33 51 78 66 100 35 54 71 125 63 125 -4 0 -2 5 5 12 7 7 12 22 12 35 0 13 3 23 8 23 7 0 17 20 47 95 37 91 66 144 118 214 30 40 53 79 51 86 -4 11 55 141 95 210 10 17 18 32 17 35 0 3 15 33 32 68 18 34 32 67 32 73 0 23 118 247 150 285 9 11 23 35 33 54 9 19 21 42 26 50 9 13 88 183 111 235 5 11 18 40 29 65 10 25 29 74 40 110 12 36 26 74 31 85 5 11 20 70 34 130 43 186 66 279 78 310 34 89 143 297 170 324 27 26 36 30 74 26 24 -3 47 -5 51 -6 12 -3 58 9 138 36 39 12 90 29 115 36 39 11 113 46 145 69 6 3 30 14 55 24 25 9 67 37 93 61 27 25 52 45 58 45 5 0 9 7 9 15 0 7 6 18 14 22 16 9 72 81 96 124 8 15 31 51 51 80 34 53 75 168 120 337 12 46 28 90 36 98 18 17 51 110 58 161 3 21 10 56 15 78 37 159 55 283 65 440 3 50 12 139 20 198 8 59 12 114 8 122 -3 9 0 59 6 113 6 53 13 153 16 222 3 69 7 150 10 180 3 30 7 75 9 100 2 25 8 77 13 115 4 39 8 128 8 199 l0 129 -39 4 c-22 1 -41 4 -43 6 -1 2 -5 29 -8 61 -2 31 -9 65 -14 75 -6 10 -7 21 -3 25 3 4 -2 4 -12 0 -12 -5 -17 -2 -15 7 2 8 -1 24 -5 37 -9 28 -63 32 -72 5 -30 -88 -94 -198 -117 -198 -22 -1 -57 -26 -57 -40 0 -8 8 -18 17 -23 15 -9 11 -18 -33 -76 -27 -36 -57 -65 -66 -66 -16 0 -17 -14 -13 -157 6 -200 7 -797 1 -814 -3 -8 -7 -54 -10 -104 -7 -97 -41 -300 -56 -326 -5 -9 -12 -34 -15 -55 -4 -22 -18 -71 -31 -110 -28 -84 -29 -88 -8 -109 15 -15 15 -18 -5 -39 -11 -12 -21 -27 -21 -32 0 -6 -10 -20 -23 -32 -17 -16 -32 -21 -58 -18 -19 2 -40 4 -47 5 -8 1 -11 13 -7 42 3 23 8 45 11 50 6 10 49 254 59 336 4 26 8 59 10 73 3 14 7 41 10 60 3 20 7 52 9 70 2 19 6 51 9 70 36 219 49 535 34 785 -4 61 -9 187 -12 280 -7 236 -6 228 -35 235 -28 6 -95 98 -104 143 -3 16 -10 26 -16 22 -6 -3 -7 1 -4 10 4 10 -1 22 -15 31 -12 9 -21 26 -21 40 0 19 -5 24 -24 24 -27 0 -32 -9 -41 -85 -9 -72 -35 -147 -48 -142 -16 6 -107 -45 -107 -59 0 -6 3 -14 7 -18 13 -13 12 -41 -2 -52 -24 -18 -44 -65 -35 -83 19 -38 32 -126 38 -261 10 -210 7 -437 -6 -495 -6 -27 -12 -68 -14 -90 -1 -22 -4 -44 -7 -50 -7 -12 -8 -17 -19 -85 -6 -30 -8 -63 -6 -74 2 -10 0 -26 -5 -35 -7 -13 -21 -164 -23 -241 0 -8 -8 -44 -18 -80 -10 -36 -24 -90 -31 -120 -6 -30 -16 -60 -21 -67 -5 -7 -7 -16 -4 -21 7 -12 -29 -64 -39 -55 -4 5 -5 0 -2 -10 8 -20 -37 -52 -88 -63 -16 -3 -34 -9 -40 -13 -14 -10 -71 -14 -94 -6 -26 8 -32 40 -20 95 15 60 50 140 62 140 6 0 8 3 4 6 -3 3 3 21 14 40 10 19 19 43 19 52 0 10 4 22 9 28 5 5 16 54 25 109 8 55 17 114 20 130 6 43 11 58 19 73 5 6 6 12 3 12 -3 0 -1 11 4 25 29 77 50 233 54 415 3 108 11 206 21 255 10 44 17 98 16 120 0 22 3 46 8 53 4 7 2 46 -4 85 -7 40 -15 101 -18 137 -4 36 -8 79 -11 95 -3 17 -6 51 -6 77 -1 44 -4 48 -28 54 -32 8 -62 32 -62 51 0 7 -3 13 -7 13 -5 0 -17 19 -28 43 -11 23 -24 45 -29 49 -6 4 -15 24 -21 45 -10 36 -26 47 -52 36z m62 -183 c9 -28 -2 -40 -36 -40 -34 0 -35 3 -11 35 21 30 39 32 47 5z m594 -60 l21 -40 -28 0 c-44 0 -52 10 -37 48 8 17 16 32 19 32 2 0 13 -18 25 -40z m636 -31 c15 -33 16 -42 6 -49 -12 -7 -71 -3 -79 5 -5 5 42 85 49 85 3 0 14 -18 24 -41z m-1192 19 c12 -7 34 -11 48 -9 24 2 26 -1 42 -91 37 -207 42 -356 16 -465 -18 -73 -25 -145 -35 -351 -3 -70 -15 -167 -26 -217 -11 -49 -24 -118 -29 -153 -4 -35 -10 -66 -13 -70 -2 -4 -11 -50 -20 -102 -23 -132 -44 -198 -66 -210 -15 -8 -35 -63 -33 -90 1 -3 -7 -17 -17 -31 -10 -14 -22 -37 -25 -52 -6 -22 -10 -25 -21 -16 -25 21 -17 -59 11 -106 30 -52 53 -67 136 -90 71 -19 103 -17 209 10 111 29 148 51 174 104 23 46 51 156 61 241 3 25 14 78 25 118 11 41 23 92 25 115 3 23 8 49 10 57 2 8 7 58 10 110 3 52 9 110 15 130 5 19 11 51 14 70 3 19 10 57 15 84 11 61 13 283 3 356 -4 30 -5 74 -1 98 5 42 -1 117 -21 237 -16 99 -18 107 -25 189 l-8 79 29 -6 c16 -3 62 -12 103 -19 l73 -13 -5 -95 c-3 -52 -8 -105 -12 -117 -6 -19 -4 -23 12 -23 17 0 20 -7 20 -67 1 -114 9 -268 14 -278 6 -11 2 -185 -5 -250 -3 -22 -7 -87 -10 -145 -3 -58 -8 -128 -11 -155 -14 -122 -39 -291 -51 -360 -4 -22 -9 -47 -10 -55 -25 -214 -48 -308 -83 -340 -9 -8 -16 -24 -16 -36 1 -28 75 -103 111 -112 50 -11 226 -3 241 11 3 4 16 7 28 7 13 0 27 6 33 13 15 18 70 241 77 311 3 32 8 62 10 66 3 4 7 34 9 66 2 33 9 122 15 199 6 77 12 177 15 222 3 46 7 87 10 92 3 5 8 161 10 348 2 186 7 381 11 433 4 52 3 113 -2 135 -5 22 -6 54 -3 70 l5 30 118 1 117 0 0 -90 c0 -49 -6 -142 -14 -205 -17 -135 -31 -318 -46 -586 -6 -104 -15 -212 -20 -240 -5 -27 -14 -124 -20 -215 -8 -110 -25 -229 -50 -360 -43 -216 -45 -222 -75 -265 -11 -16 -32 -75 -45 -130 -52 -221 -89 -307 -193 -445 -83 -111 -156 -179 -232 -217 -38 -19 -77 -41 -85 -48 -8 -7 -67 -30 -130 -51 -96 -32 -130 -39 -205 -40 -49 -1 -103 -7 -120 -13 -34 -14 -95 -79 -95 -102 0 -9 -6 -22 -13 -28 -8 -6 -22 -30 -32 -53 -10 -24 -34 -81 -55 -128 -44 -101 -80 -210 -80 -242 0 -13 -16 -72 -35 -132 -19 -59 -36 -118 -38 -130 -1 -11 -8 -30 -14 -41 -5 -11 -13 -35 -16 -52 -6 -31 -36 -107 -57 -145 -6 -10 -10 -25 -10 -33 0 -8 -5 -14 -12 -12 -6 1 -13 -7 -15 -18 -5 -27 -55 -158 -65 -169 -4 -6 -8 -17 -8 -25 0 -8 -12 -30 -27 -50 -35 -44 -43 -58 -89 -151 -21 -41 -41 -77 -45 -80 -4 -3 -26 -52 -50 -110 -23 -58 -51 -117 -61 -132 -11 -16 -16 -32 -13 -38 3 -5 2 -10 -3 -10 -6 0 -31 -43 -57 -95 -26 -53 -51 -98 -56 -100 -4 -3 -15 2 -24 11 -16 16 -16 15 -12 -14 3 -18 1 -34 -4 -38 -5 -3 -9 -20 -9 -39 0 -19 -4 -36 -9 -40 -24 -14 -120 -209 -192 -389 -17 -43 -101 -176 -203 -326 -35 -51 -38 -56 -69 -91 -12 -14 -38 -50 -57 -80 -19 -29 -60 -81 -92 -114 -31 -33 -87 -99 -125 -146 -144 -181 -173 -215 -214 -249 -58 -48 -78 -68 -124 -125 -22 -27 -53 -62 -69 -77 -22 -22 -29 -38 -29 -66 0 -34 -10 -47 -140 -176 -77 -76 -158 -161 -182 -190 -23 -28 -61 -71 -83 -96 -42 -45 -42 -45 -111 -45 -55 0 -73 4 -91 20 -31 28 -38 44 -45 106 -6 49 -3 60 18 93 64 93 357 397 424 439 50 31 103 87 120 125 7 15 12 23 13 17 0 -12 60 81 60 93 0 5 19 30 43 55 23 25 58 69 77 97 19 28 40 57 45 63 6 7 28 37 48 69 21 31 44 62 52 68 8 7 15 18 15 24 0 6 24 38 54 72 30 33 61 76 70 95 24 52 55 104 129 216 37 56 67 105 67 108 0 3 34 51 75 106 41 55 75 102 75 103 0 2 22 41 50 87 27 46 50 89 50 95 0 6 18 36 40 67 42 58 150 267 150 290 0 7 9 30 20 52 11 22 20 42 20 46 0 10 88 161 133 229 21 30 37 58 37 62 0 8 81 140 91 148 3 3 12 22 18 42 7 21 16 40 21 43 10 6 60 109 60 124 0 5 3 11 8 13 14 6 79 113 97 161 10 26 22 47 27 47 5 0 6 5 3 11 -8 12 37 133 100 273 15 33 28 64 29 70 1 6 7 20 13 31 9 17 46 130 100 306 16 53 21 92 27 199 l4 75 -68 71 c-37 39 -70 82 -73 96 -11 42 -58 138 -68 138 -6 0 -8 4 -5 9 3 4 -3 26 -13 47 -16 33 -29 69 -69 194 -11 34 -7 247 6 285 7 22 12 49 11 60 -2 21 1 31 48 135 17 36 33 78 37 93 4 19 12 27 20 24 8 -3 17 -3 20 1 4 3 21 7 39 7 31 2 32 0 29 -30 -4 -35 16 -59 41 -49 20 7 39 55 41 104 0 22 5 40 9 40 5 0 6 4 2 9 -3 6 2 14 11 19 10 6 22 35 30 73 22 106 40 181 57 240 9 31 17 74 16 95 0 21 2 55 5 74 3 19 6 52 7 73 2 20 6 37 10 37 4 0 6 12 3 27 -3 14 -2 33 2 42 10 22 10 24 29 139 4 23 11 42 16 42 10 0 12 33 3 43 -3 3 -8 77 -10 164 -4 179 -7 217 -29 309 -8 36 -15 86 -15 110 0 25 -4 54 -10 64 -5 10 -11 51 -12 91 l-3 74 35 6 c57 10 80 10 103 -3z m-189 -24 c13 -33 4 -42 -22 -26 -7 5 -10 16 -6 25 8 21 20 22 28 1z m0 -60 c11 -4 16 -19 16 -42 0 -34 -1 -35 -14 -17 -15 22 -30 65 -22 65 2 0 11 -3 20 -6z m617 -108 c11 -32 17 -61 14 -64 -11 -11 -75 75 -75 101 0 18 22 39 32 29 5 -5 17 -34 29 -66z m-583 -22 c2 -1 12 -62 23 -135 24 -157 34 -325 20 -333 -5 -4 -8 11 -6 34 2 22 0 40 -3 40 -17 0 -47 106 -33 114 12 8 3 42 -14 56 -16 13 -9 39 13 58 11 8 12 12 3 12 -7 0 -10 4 -7 9 3 5 -1 14 -9 21 -17 14 -20 47 -5 52 6 2 -1 19 -15 38 -14 18 -25 42 -25 52 0 19 -1 20 58 -18z m569 -72 c7 -7 17 -11 24 -10 23 6 50 -138 46 -244 -2 -54 -6 -100 -9 -104 -7 -6 -41 24 -51 47 -4 8 -16 28 -27 44 -27 41 -40 73 -40 97 0 18 5 15 30 -18 16 -21 30 -45 30 -51 0 -7 4 -13 9 -13 5 0 13 -9 16 -21 l7 -21 15 22 c10 14 12 24 5 29 -5 3 -26 36 -46 72 l-35 67 22 15 22 15 -32 29 c-18 17 -33 40 -33 51 0 12 -4 22 -8 22 -4 0 -9 12 -10 26 -2 25 -2 25 25 -8 16 -18 33 -39 40 -46z m603 58 c9 -16 8 -18 -5 -14 -8 4 -15 12 -15 20 0 20 7 17 20 -6z m-36 -47 c5 -12 9 -14 14 -6 15 24 63 -36 55 -68 -6 -22 -23 -26 -23 -4 0 8 -3 15 -7 15 -16 0 -70 56 -66 68 7 17 20 15 27 -5z m-24 -55 c11 -18 20 -27 20 -20 0 9 6 9 23 -3 28 -18 47 -55 47 -92 0 -21 -2 -24 -15 -13 -8 7 -15 17 -15 22 0 5 -7 16 -15 24 -8 8 -12 22 -9 32 5 13 4 14 -4 4 -7 -11 -15 -6 -33 20 -13 18 -27 35 -31 36 -12 5 -10 22 2 22 6 0 19 -15 30 -32z m-1159 -32 c1 -17 2 -17 6 -3 2 9 8 15 13 12 13 -8 0 -35 -16 -35 -13 0 -34 30 -34 49 0 20 30 -2 31 -23z m1165 -29 c4 -4 1 -7 -6 -7 -8 0 5 -14 28 -31 23 -17 42 -35 42 -39 0 -5 6 -10 13 -12 8 -2 11 -13 7 -30 -5 -27 -6 -26 -68 42 -35 39 -61 74 -58 79 7 10 31 9 42 -2z m-2 -78 c-2 -3 6 -17 18 -32 11 -14 31 -44 44 -66 23 -37 23 -40 6 -38 -14 1 -18 7 -14 22 5 17 3 18 -10 7 -14 -11 -16 -10 -11 7 6 22 -12 30 -19 9 -3 -7 -7 -5 -11 6 -4 10 -3 15 3 11 15 -9 12 15 -4 31 -22 21 -31 -2 -15 -34 8 -15 24 -35 37 -45 27 -23 52 -68 53 -99 3 -118 -4 -259 -13 -264 -7 -4 -6 -9 3 -15 10 -6 11 -9 2 -9 -8 0 -13 -12 -12 -27 0 -25 1 -26 9 -8 7 17 9 17 9 3 1 -10 -7 -23 -18 -29 -17 -11 -17 -13 -1 -29 16 -16 16 -24 4 -100 -14 -87 -22 -117 -23 -87 -1 9 -8 17 -16 17 -8 0 -15 8 -15 17 0 9 -3 13 -7 10 -3 -4 -12 -2 -20 4 -15 13 -18 89 -3 89 6 0 10 -5 10 -11 0 -6 7 -8 16 -5 13 5 14 3 6 -6 -7 -9 -6 -17 3 -25 10 -10 14 -9 19 3 7 18 -15 64 -40 85 -11 9 -15 9 -10 2 4 -7 2 -13 -3 -13 -15 0 -14 67 1 72 15 5 21 45 8 53 -12 7 -14 56 -2 54 4 -1 14 -1 22 0 11 1 11 4 2 13 -7 7 -12 20 -12 30 0 10 -7 21 -15 24 -20 8 -19 38 1 59 13 13 14 18 3 33 -11 14 -11 15 1 5 8 -7 21 -13 30 -13 12 1 12 2 -2 11 -10 5 -18 17 -18 25 0 8 -7 17 -15 20 -9 4 -15 18 -14 38 0 29 1 30 11 9 6 -13 15 -23 21 -23 13 0 -1 51 -20 72 -9 10 -17 44 -20 82 -6 64 -5 64 20 63 14 -1 23 -5 21 -8z m-1142 -113 c1 -10 -2 -21 -7 -23 -6 -2 -12 11 -13 29 -3 34 13 29 20 -6z m655 -114 c17 -24 31 -206 18 -239 -6 -16 -8 -15 -25 7 -11 14 -20 21 -20 15 0 -5 -15 17 -34 50 -23 40 -30 63 -24 70 7 7 12 6 15 -2 3 -7 10 -13 17 -13 7 0 18 -11 24 -25 8 -16 17 -23 27 -19 17 7 12 38 -11 65 -8 8 -14 23 -14 31 0 9 -4 18 -9 20 -8 3 -61 83 -61 93 0 3 7 5 15 5 8 0 15 -8 15 -19 0 -10 7 -24 15 -31 10 -9 15 -9 15 -1 0 6 -4 11 -8 11 -4 0 -9 12 -10 28 l-2 27 21 -25 c11 -14 27 -35 36 -48z m-607 37 c0 -6 -4 -7 -10 -4 -5 3 -10 11 -10 16 0 6 5 7 10 4 6 -3 10 -11 10 -16z m-54 -26 c-10 -10 -19 5 -10 18 6 11 8 11 12 0 2 -7 1 -15 -2 -18z m24 -42 c6 -16 10 -43 8 -61 l-3 -33 -22 41 c-20 38 -21 82 -3 82 4 0 13 -13 20 -29z m36 -47 c-3 -7 1 -20 9 -28 13 -12 13 -15 0 -20 -8 -3 -16 0 -16 7 -1 7 -3 24 -5 40 -2 17 1 25 7 21 6 -3 8 -12 5 -20z m24 -58 c0 -2 -8 -10 -17 -17 -16 -13 -17 -12 -4 4 13 16 21 21 21 13z m-68 -56 c-4 -38 8 -54 23 -30 4 6 11 8 16 5 12 -8 12 -45 -1 -45 -5 0 -10 5 -10 10 0 6 -7 10 -16 10 -9 0 -12 -5 -8 -12 4 -7 -2 -5 -13 5 -11 9 -22 14 -25 11 -10 -9 -20 34 -13 55 3 11 16 22 28 24 12 2 22 5 22 6 0 0 -1 -17 -3 -39z m573 -61 c0 -7 -8 -15 -17 -17 -18 -3 -25 18 -11 32 10 10 28 1 28 -15z m60 -38 c-3 -5 0 -13 6 -17 11 -6 7 -113 -7 -161 -6 -23 -24 -32 -24 -13 0 6 -7 10 -16 10 -8 0 -13 4 -10 9 3 5 -1 11 -9 15 -21 8 -19 55 2 63 9 4 19 1 21 -5 2 -7 10 -12 19 -12 12 0 13 8 8 43 -4 23 -12 45 -17 48 -6 4 -2 11 8 18 24 13 27 13 19 2z m-665 -36 c0 -13 6 -30 13 -37 11 -10 12 -15 1 -25 -16 -17 -44 -17 -45 0 0 6 -2 22 -5 34 -2 12 1 25 6 28 6 4 8 11 5 16 -4 5 1 9 9 9 10 0 16 -9 16 -25z m567 -27 c-3 -8 -6 -5 -6 6 -1 11 2 17 5 13 3 -3 4 -12 1 -19z m-601 -96 c1 -7 2 -21 3 -32 0 -11 7 -20 15 -20 9 0 12 -7 9 -21 -4 -16 -8 -17 -14 -7 -10 15 -12 7 -3 -16 3 -9 9 -14 14 -11 8 5 5 -44 -4 -53 -3 -3 -6 4 -6 16 0 12 -7 22 -17 24 -15 3 -18 15 -18 71 0 40 4 66 10 64 6 -2 11 -9 11 -15z m590 3 c12 -12 12 -15 2 -15 -9 -1 -7 -5 5 -14 9 -7 17 -19 17 -26 0 -7 3 -10 7 -7 3 4 12 -1 18 -10 11 -15 15 -16 31 -3 16 14 17 12 11 -25 -4 -22 -7 -57 -7 -78 0 -30 -5 -40 -22 -47 -13 -5 -17 -9 -9 -9 11 -1 10 -5 -5 -16 -18 -14 -18 -14 4 -15 23 0 24 -2 17 -52 -7 -54 -25 -90 -25 -51 0 12 -5 25 -10 28 -6 4 -7 11 -4 17 5 8 1 9 -12 4 -10 -4 -15 -4 -11 0 4 4 -3 18 -15 31 -12 13 -18 23 -14 23 3 0 0 13 -9 30 -8 16 -15 41 -15 56 0 27 0 27 18 8 11 -11 17 -28 14 -43 -3 -14 -1 -21 5 -18 6 4 9 -6 8 -21 -1 -19 3 -28 14 -28 13 0 16 10 14 46 -2 57 -38 203 -51 208 -9 3 -5 42 5 42 2 0 11 -7 19 -15z m-563 -20 c4 -8 2 -17 -3 -20 -6 -4 -10 3 -10 14 0 25 6 27 13 6z m34 -75 c0 -22 -4 -43 -8 -46 -5 -3 -9 -2 -10 3 0 4 -2 21 -4 37 -4 31 1 46 14 46 5 0 8 -18 8 -40z m1123 -11 c0 -6 9 -8 20 -4 23 7 28 -13 8 -33 -9 -9 -9 -12 1 -12 7 0 11 -9 9 -22 -3 -22 -23 -29 -23 -8 0 5 -8 19 -17 30 -19 22 -24 60 -8 60 6 0 10 -5 10 -11z m60 -64 c0 -14 -2 -25 -4 -25 -2 0 -6 11 -8 25 -3 14 -1 25 3 25 5 0 9 -11 9 -25z m-1198 -17 c-7 -7 -12 -8 -12 -2 0 14 12 26 19 19 2 -3 -1 -11 -7 -17z m1134 -4 c-7 -19 10 -54 27 -54 8 0 7 4 -3 11 -13 9 -13 10 0 6 8 -2 15 -12 15 -23 0 -10 6 -29 13 -42 11 -20 11 -26 -1 -40 -8 -10 -12 -25 -8 -35 11 -30 0 -97 -16 -97 -12 0 -12 -3 0 -20 16 -24 11 -69 -10 -77 -10 -4 -12 -18 -7 -57 4 -34 3 -48 -4 -41 -14 14 -23 78 -13 94 10 15 3 51 -10 51 -5 0 -5 -8 -2 -17 6 -15 5 -16 -9 -3 -9 8 -14 18 -11 23 2 4 0 7 -5 7 -5 0 -8 -30 -6 -67 5 -100 6 -104 25 -98 13 4 17 -1 17 -22 0 -16 -5 -34 -11 -41 -7 -9 -6 -11 7 -6 11 4 16 1 16 -10 0 -8 -6 -13 -13 -10 -9 3 -13 -9 -12 -48 0 -48 -2 -53 -23 -56 -16 -2 -22 -8 -18 -18 3 -8 1 -14 -4 -14 -6 0 -10 7 -10 15 0 8 -6 15 -13 15 -8 0 -19 11 -25 25 -6 14 -18 25 -26 25 -8 0 -13 6 -11 13 14 65 19 78 26 83 5 3 9 1 9 -5 0 -6 11 -21 24 -34 14 -14 22 -28 19 -31 -4 -3 -1 -6 6 -6 7 0 9 -5 5 -11 -4 -7 -1 -10 7 -7 8 3 15 21 17 43 2 33 0 37 -18 32 -11 -3 -20 -1 -20 5 0 5 -4 7 -9 4 -5 -4 -7 3 -4 14 5 20 7 20 24 4 11 -10 21 -15 24 -12 9 9 -36 88 -50 88 -20 0 -19 15 4 91 11 35 22 84 26 108 7 41 9 43 21 26 11 -15 16 -16 27 -6 10 10 8 16 -10 31 -24 19 -29 45 -14 69 6 9 11 10 15 2 4 -6 16 -11 27 -11 13 0 18 -4 13 -12 -5 -7 -3 -8 6 -3 10 6 10 11 -3 20 -10 7 -17 17 -17 22 0 5 -8 20 -19 31 -19 23 -18 70 3 84 16 11 19 10 12 -8z m-1214 -59 c-22 -30 -25 -26 -16 21 6 34 8 36 20 19 11 -15 10 -21 -4 -40z m53 -46 c-8 -41 -15 -77 -15 -81 0 -4 -6 -5 -13 -2 -13 5 -13 61 0 94 4 8 5 19 4 23 -1 5 4 5 10 1 8 -5 10 -2 6 8 -5 14 12 43 20 34 2 -2 -3 -37 -12 -77z m-71 -40 c18 -44 10 -70 -20 -65 -12 3 -25 -1 -28 -7 -4 -7 -3 6 0 28 3 22 10 42 15 43 5 2 9 10 9 18 0 23 10 16 24 -17z m606 7 c0 -3 -4 -8 -10 -11 -5 -3 -10 -1 -10 4 0 6 5 11 10 11 6 0 10 -2 10 -4z m42 -64 c6 -7 19 -10 28 -7 16 5 17 2 3 -52 -8 -32 -18 -83 -23 -113 -4 -30 -11 -68 -15 -85 -4 -16 -8 -39 -9 -50 -4 -33 -44 -88 -65 -92 -29 -4 -26 15 6 43 26 22 27 24 9 43 -17 19 -17 21 -2 27 11 4 14 13 10 31 -4 16 -2 28 7 33 7 5 13 25 12 47 -1 21 3 43 8 49 19 23 18 54 -2 64 -10 6 -19 15 -19 21 0 6 7 3 16 -5 8 -9 21 -16 27 -16 7 0 4 7 -5 14 -10 7 -15 16 -11 19 3 4 1 13 -5 20 -7 8 -9 17 -5 20 3 4 1 7 -5 7 -7 0 -5 8 6 20 l17 21 3 -23 c2 -13 9 -29 14 -36z m-674 -78 c14 -51 10 -63 -13 -44 -14 12 -19 90 -5 90 3 0 11 -21 18 -46z m-48 -126 c0 -5 -7 -8 -15 -8 -17 0 -18 2 -9 25 5 13 8 14 15 3 5 -7 9 -16 9 -20z m56 -4 c-3 -9 -6 -21 -6 -27 0 -8 -3 -8 -11 0 -13 13 -5 43 12 43 6 0 8 -7 5 -16z m580 -20 c-3 -8 2 -20 10 -29 14 -13 14 -16 -1 -21 -10 -4 -21 -1 -26 7 -8 12 -11 12 -20 -1 -7 -11 -9 -6 -6 21 6 51 15 63 33 48 8 -7 13 -18 10 -25z m561 -56 c-3 -8 -6 -5 -6 6 -1 11 2 17 5 13 3 -3 4 -12 1 -19z m-598 -54 c4 3 8 -1 8 -9 0 -8 -5 -15 -10 -15 -5 0 -4 -7 3 -15 7 -8 9 -15 4 -15 -5 0 -19 -3 -31 -6 l-22 -6 17 40 c9 23 19 37 20 31 2 -5 7 -7 11 -5z m565 -143 c3 -5 -3 -11 -14 -14 -20 -5 -26 3 -13 16 9 10 21 9 27 -2z m76 -46 c0 -7 -12 -16 -26 -19 -28 -7 -45 0 -28 12 6 4 14 15 17 26 6 15 10 16 22 6 8 -7 15 -18 15 -25z m-1193 -1107 c-3 -8 -6 -5 -6 6 -1 11 2 17 5 13 3 -3 4 -12 1 -19z m-17 -76 c0 -5 -6 -30 -14 -55 -7 -25 -11 -48 -9 -51 3 -3 -2 -12 -11 -21 -9 -9 -16 -11 -16 -5 0 27 33 140 41 140 5 0 9 -4 9 -8z m-135 -330 c-3 -17 -13 -33 -21 -36 -18 -7 -18 -4 1 41 18 42 30 38 20 -5z m-10 -72 c-9 -16 -17 -30 -19 -30 -8 0 8 45 18 52 17 12 17 10 1 -22z m-34 -67 c-8 -15 -10 -15 -11 -2 0 17 10 32 18 25 2 -3 -1 -13 -7 -23z m-24 -78 c-4 -8 -12 -15 -19 -14 -10 0 -10 2 0 6 6 2 12 12 12 21 0 8 3 13 6 9 4 -3 4 -13 1 -22z m-73 -88 c-9 -37 -20 -64 -25 -62 -9 6 -5 -42 4 -52 4 -3 7 1 7 10 0 10 5 17 11 17 5 0 -1 -19 -15 -42 -14 -24 -30 -43 -36 -43 -6 0 -15 -7 -20 -15 -8 -13 -10 -13 -10 1 0 32 13 79 20 74 5 -3 6 4 3 15 -5 19 63 177 73 168 2 -3 -3 -35 -12 -71z m-178 -418 c-15 -22 -31 -37 -36 -34 -12 7 3 40 34 73 31 34 32 7 2 -39z m-120 -175 c-10 -14 -20 -23 -23 -21 -2 3 3 17 13 31 9 15 19 24 22 22 2 -3 -3 -17 -12 -32z m-77 -146 c-17 -34 -56 -98 -76 -127 -2 -2 -6 -1 -9 2 -4 4 4 21 18 39 14 18 35 54 47 81 12 26 26 47 31 47 6 0 1 -19 -11 -42z m-162 -303 c-9 -8 -18 -28 -22 -45 -4 -16 -11 -30 -16 -30 -5 0 -8 -3 -7 -7 5 -13 -40 -83 -52 -83 -7 0 -2 15 10 35 12 19 18 39 15 45 -4 6 13 36 36 67 24 30 45 50 47 44 2 -6 -3 -18 -11 -26z m-107 -210 c0 -16 -27 -32 -37 -21 -7 7 16 36 28 36 5 0 9 -7 9 -15z m-20 -49 c-1 -6 -12 -24 -25 -41 l-25 -30 6 30 c7 45 11 52 28 52 9 0 16 -5 16 -11z m-96 -121 c-4 -8 -8 -15 -10 -15 -2 0 -4 7 -4 15 0 8 4 15 10 15 5 0 7 -7 4 -15z m-34 -105 c-6 -12 -14 -19 -17 -17 -2 3 1 15 7 27 6 12 14 19 17 17 2 -3 -1 -15 -7 -27z m-170 -249 c0 -5 -7 -14 -15 -21 -8 -6 -26 -32 -40 -56 -14 -24 -28 -44 -32 -44 -3 0 1 10 9 23 8 12 25 41 37 65 19 38 41 56 41 33z m-320 -388 c0 -14 -41 -75 -46 -70 -7 6 28 77 38 77 4 0 8 -3 8 -7z m38 -52 c-7 -12 -16 -21 -21 -21 -4 0 0 11 9 25 20 30 31 26 12 -4z m-64 -88 c-9 -16 -27 -43 -38 -60 -23 -36 -39 -44 -28 -13 8 21 70 100 79 100 3 0 -3 -12 -13 -27z"
   id="path605" /><path
   d="M2737 5804 c-4 -4 -7 -14 -7 -23 0 -11 3 -12 11 -4 6 6 10 16 7 23 -2 6 -7 8 -11 4z"
   id="path606" /><path
   d="M2721 5744 c0 -11 3 -14 6 -6 3 7 2 16 -1 19 -3 4 -6 -2 -5 -13z"
   id="path607" /><path
   d="M2694 5686 c0 -13 4 -22 9 -19 10 6 9 31 -2 37 -5 3 -8 -5 -7 -18z"
   id="path608" /><path
   d="M2676 5634 c-5 -14 -4 -15 9 -4 17 14 19 20 6 20 -5 0 -12 -7 -15 -16z"
   id="path609" /><path
   d="M2737 5631 c-2 -10 -1 -24 3 -30 4 -7 7 1 8 18 1 35 -3 40 -11 12z"
   id="path610" /><path
   d="M3981 5554 c-13 -13 -26 -22 -29 -19 -2 2 -19 -2 -36 -9 -17 -6 -57 -18 -90 -26 -42 -10 -53 -16 -40 -21 11 -3 23 -4 28 -1 20 11 86 8 86 -5 0 -7 -5 -13 -11 -13 -7 0 -20 -10 -31 -22 -11 -13 -20 -22 -21 -20 -2 3 -22 -3 -57 -16 -8 -3 -21 -4 -27 -3 -7 1 -13 -5 -13 -14 0 -9 -4 -13 -10 -10 -5 3 -10 -1 -10 -9 0 -21 1 -21 57 12 26 15 59 33 73 40 43 23 72 51 67 66 -4 10 5 18 26 25 32 12 77 48 77 63 0 13 -14 7 -39 -18z"
   id="path611" /><path
   d="M2716 5543 c-6 -14 -5 -15 5 -6 7 7 10 15 7 18 -3 3 -9 -2 -12 -12z"
   id="path612" /><path
   d="M3754 5299 c-19 -22 -19 -22 4 -8 12 8 22 17 22 21 0 12 -6 9 -26 -13z"
   id="path613" /><path
   d="M3671 5261 c-7 -9 -9 -11 -6 -5 2 7 -12 3 -31 -7 -20 -10 -42 -20 -48 -22 -6 -2 -8 -8 -4 -12 4 -4 13 -3 20 2 7 6 29 14 48 17 39 8 80 26 80 36 0 13 -48 5 -59 -9z"
   id="path614" /><path
   d="M3560 5206 c0 -9 5 -16 10 -16 6 0 10 4 10 9 0 6 -4 13 -10 16 -5 3 -10 -1 -10 -9z"
   id="path615" /><path
   d="M3535 5200 c-3 -5 -1 -10 4 -10 6 0 11 5 11 10 0 6 -2 10 -4 10 -3 0 -8 -4 -11 -10z"
   id="path616" /><path
   d="M2645 3710 c-15 -23 -39 -46 -55 -51 -15 -6 -30 -19 -33 -31 -5 -19 -5 -19 13 -3 10 9 24 17 32 18 21 4 59 33 51 40 -3 4 0 7 7 7 7 0 10 3 7 7 -4 3 0 14 9 24 10 11 12 19 5 23 -6 4 -22 -12 -36 -34z"
   id="path617" /><path
   d="M2607 3613 c-4 -3 -7 -14 -7 -24 0 -10 -9 -21 -20 -24 -11 -3 -20 -11 -20 -16 0 -5 -7 -9 -16 -9 -9 0 -14 -6 -11 -12 2 -7 10 -12 17 -10 9 2 7 -5 -4 -23 l-17 -26 24 16 c14 9 28 27 31 40 4 14 15 29 27 35 17 10 18 14 7 28 -11 14 -11 15 6 9 16 -6 17 -5 6 8 -14 17 -14 17 -23 8z"
   id="path618" /><path
   d="M2500 3514 c0 -8 5 -12 10 -9 6 3 10 10 10 16 0 5 -4 9 -10 9 -5 0 -10 -7 -10 -16z"
   id="path619" /><path
   d="M2491 3414 c0 -11 3 -14 6 -6 3 7 2 16 -1 19 -3 4 -6 -2 -5 -13z"
   id="path620" /><path
   d="M2413 3284 c-8 -23 3 -28 27 -11 l21 14 -21 6 c-13 3 -23 0 -27 -9z"
   id="path621" /><path
   d="M2100 2580 c-6 -11 -15 -18 -20 -15 -6 3 -7 -1 -4 -10 6 -14 10 -13 30 6 25 24 31 39 14 39 -5 0 -14 -9 -20 -20z"
   id="path622" /><path
   d="M2017 2509 c-17 -20 -18 -22 -1 -40 11 -12 13 -19 5 -19 -7 0 -10 -4 -7 -9 4 -5 1 -11 -6 -13 -9 -3 -9 -6 0 -12 11 -7 42 51 42 80 0 8 5 14 10 14 6 0 10 5 10 10 0 18 -35 11 -53 -11z"
   id="path623" /><path
   d="M1030 1290 c0 -11 5 -20 10 -20 6 0 10 9 10 20 0 11 -4 20 -10 20 -5 0 -10 -9 -10 -20z"
   id="path624" /><path
   d="M830 841 c-44 -8 -100 -41 -94 -56 3 -7 -13 -17 -38 -25 -49 -15 -71 -30 -45 -30 27 0 20 -15 -13 -27 -23 -8 -29 -16 -24 -30 5 -17 5 -17 -10 1 -8 10 -19 15 -25 11 -18 -11 -12 -24 14 -31 31 -8 32 -17 3 -38 -22 -15 -22 -16 7 -4 44 17 50 25 35 43 -12 14 -11 18 1 26 8 5 17 9 22 10 33 6 57 21 57 34 0 8 18 22 40 31 22 10 39 23 36 30 -4 12 34 34 58 34 8 0 19 7 26 15 14 17 12 17 -50 6z"
   id="path625" /><path
   d="M4141 7164 c0 -11 3 -14 6 -6 3 7 2 16 -1 19 -3 4 -6 -2 -5 -13z"
   id="path626" /><path
   d="M4155 7140 c-3 -5 -1 -10 4 -10 6 0 11 5 11 10 0 6 -2 10 -4 10 -3 0 -8 -4 -11 -10z"
   id="path627" /><path
   d="M4140 7074 c0 -8 5 -12 10 -9 6 4 8 11 5 16 -9 14 -15 11 -15 -7z"
   id="path628" /><path
   d="M4127 6930 c-3 -11 -1 -18 3 -15 5 3 11 -3 13 -12 3 -10 4 -6 3 9 -3 35 -12 44 -19 18z"
   id="path629" /><path
   d="M4107 6847 c-3 -8 3 -13 19 -13 18 0 21 3 12 13 -6 7 -14 13 -18 13 -4 0 -10 -6 -13 -13z"
   id="path630" /><path
   d="M3591 6984 c0 -11 3 -14 6 -6 3 7 2 16 -1 19 -3 4 -6 -2 -5 -13z"
   id="path631" /><path
   d="M4090 6298 c0 -9 5 -20 10 -23 13 -8 13 5 0 25 -8 13 -10 13 -10 -2z"
   id="path632" /><path
   d="M3435 6030 c3 -5 8 -10 11 -10 2 0 4 5 4 10 0 6 -5 10 -11 10 -5 0 -7 -4 -4 -10z"
   id="path633" /></g></svg>
